<svg xmlns="http://www.w3.org/2000/svg" viewBox="0 0 192.42 124.73"><defs><style>.cls-1{fill:#d8dbe2;}</style></defs><title>資產 4</title><g id="圖層_2" data-name="圖層 2"><g id="圖層_1-2" data-name="圖層 1"><path class="cls-1" d="M166.79,18.13c.12-.15.33-.31.33-.46,0-2.14.67-3.19,2.59-3.94a2.27,2.27,0,0,0,.81-.56,29.77,29.77,0,0,1,5.14-3.79c1-.68,1.94-1.42,2.91-2.13a16.54,16.54,0,0,1,1.46-1c.78-.44,1.57-.84,2.36-1.24.41-.21.85-.35,1.25-.58a2.7,2.7,0,0,0,.51-.5l-3.61-1.53c-1.09,1.34-2.52.77-4,.43a8,8,0,0,0-2.62.26c-.12,0-.23.12-.35.14l-5,.57c-1.55.17-3.09.31-4.64.46l-.47-1.2-.64,1.12c-3.21.12-6.48.25-9.74.35a3.1,3.1,0,0,1-1-.29,8.39,8.39,0,0,1-2,.68c-1.2.12-2.43,0-3.64.07-.58,0-1.14.24-1.72.31s-1.43.11-2.13.22S141,6,140.16,6A13.89,13.89,0,0,1,138,5.92a4.85,4.85,0,0,0-.82-.14l-6.79.36c-2.19.11-4.37.2-6.56.27-1.14,0-2.28,0-3.42,0s-2.16.22-3.24.26c-.83,0-1.65-.1-2.48-.14-2.4-.12-4.8-.2-7.19-.36-2-.14-4.06-.38-6.09-.55-.71-.06-1.44.05-2.15,0C98.17,5.45,97.06,5.22,96,5c-.29-.07-.51-.38-.63-.48a20.5,20.5,0,0,1-2.09.16c-2.87-.06-5.74-.2-8.61-.21-3.3,0-6.6.11-9.9.12-4.59,0-9.17,0-13.76,0,.56-.77.48-1-.4-1.26l0,0c.88-1.46,1.14-1.38,2.68-.86a11.81,11.81,0,0,0,3.44.06l.4.53a4.13,4.13,0,0,0,.63-.47,1.45,1.45,0,0,1,2-.29.68.68,0,0,0,.59,0c.58-.33,1.09-.55,1.48.25,0,0,.6-.24,1-.41l3-.15a.76.76,0,0,1,.37,0c1.26.62,2.49,0,3.73,0,1-.06,2,.15,3,.18.61,0,1.22-.13,1.84-.14C85.81,2,86.91,2,88,2s1.11.07,1.56,1c.39-.24-.09-1.29.81-1a5.12,5.12,0,0,1,1.19.83l-.13.28c.23-.18.47-.35.7-.55s.36-.36.54-.54l.39.66c.06.11.13.21.22.35.83-.43,1.66-.9,2.3.21,1-1,1.74-1,2.5,0,.77-.8,1.09-.74,2,.37.39-1,.77-1.06,1.53-.31.45.43.65.52,1.41.28a6.14,6.14,0,0,1,4.31-.17c.3.13.49.51.77.81l.29-.2c.7-.53,1.18-.39,1.42.43s.49.72,1.11.36A3.9,3.9,0,0,1,113,4.15,20.89,20.89,0,0,0,119.42,4c1.19-.27,1.63,0,1.65,1.1,0,.21.39.41.6.62a6.08,6.08,0,0,1,.09-.76,1.64,1.64,0,0,1,.27-.75,1,1,0,0,1,.68-.23c2.67.11,5.33-.19,8-.27.31,0,.63.49,1,.77,1.13-1.13,2.11-1.25,3-.41.76-.23,1.45-.48,2.15-.64.44-.11.85-.08,1,.5,0,.13.61.26.82.15.7-.37,1.26-.84,2.21-.36.47.23,1.29-.29,1.95-.36.39,0,.8.21,1.2.18a4.2,4.2,0,0,0,1.83-.32c.62-.36,1.07-.65,1.59,0a2.47,2.47,0,0,1,2.84,0c.19-.15.36-.4.57-.44.94-.22,1.91-.29,2.86-.49a33,33,0,0,1,6.22-.34c1.08,0,2.19-.33,3.23.26a.38.38,0,0,0,.36,0c.68-.7,1.48-.24,2.24-.3,2.08-.18,4.15-.59,6.23-.81.4,0,.84.31,1.35.52.6-1.13,1.88-.51,2.88-.66a9.82,9.82,0,0,1,4.08.16c.88.27,2,0,2.74.9.11.13.9-.08,1.13-.34.65-.74,1.18-.35,1.65.08.72.66,1.46,0,2.18.1.12,0,.39-.62.41-1,0-.52.27-.74.74-.75s.8,0,1.21,0l.22,1.85c1.23.13,1.38.32,1.16,1.38a.8.8,0,0,1-.27.44c-.47.32-1,.6-1.61,1l1,.56c-.3.81-.65,1.58-.86,2.39-.12.48-.39,1.11.41,1.41a.72.72,0,0,1,.15.65,2.94,2.94,0,0,1-.83.5c.25.88-.25,1.24-1.19,1.3.65.16,1,1.16,2,.29-.34,1.71.19,3.22-.65,4.62a1.15,1.15,0,0,0,0,.8c.35,1.07.37,1.07-.47,1.82.78,1.39.79,3,0,3.77,1,1.23.14,2.64.46,4h-1.67c.35.31.56.64.8.66.72.06.69.44.68,1,0,3.85,0,7.7,0,11.55,0,.24,0,.6-.09.71-.72.58-.3,1.28-.25,1.92.12,1.54.41,3.07.45,4.6.14,4.94.17,9.88.28,14.81,0,1.26.35,2.52.28,3.77a13.31,13.31,0,0,0,.51,3.72,17.11,17.11,0,0,1,.22,3.37.72.72,0,0,1-.2.5c-.36.4-.58.69,0,1.12.22.15.21.68.22,1.05,0,1.18,0,2.36,0,3.54,0,.14-.07.28-.36.58,0-.13,0-.3-.1-.36s-.42-.31-.6-.28-.35.44-.28.55a17.55,17.55,0,0,0,1.11,1.6c.06.08.23.11.25.18a6.81,6.81,0,0,1,.29,2.2c-.34,1.73.53,3.28.57,5,0,1.22.26,2.43.32,3.65.08,1.52.08,3,.12,4.57,0,.62.3,1.41,0,1.85-.71,1.12-.65,2.81-2.26,3.31,0,0-.07,0-.08.05-.92,2-3.32,2.31-4.58,4-.33.43-1.16.49-1.75.72l-.12-.25c-.08.2-.13.54-.24.57-1.56.34-2,2.48-3.77,2.44a.79.79,0,0,0-.51.33,1.59,1.59,0,0,1-1.73.78c-.2,0-.53.53-.8.83l.2.23-1.61.33c.55,1.21-.23,1.22-1,1.21-.56,0-1,0-1.17.74s-.86.58-1.77-.09c-.91.8-1.54.74-2.43-.12a8.76,8.76,0,0,0-1.4-1,.58.58,0,0,0-.33,0c0,.25,0,.49,0,.76-.2.17-.43.4-.7.59s-.44.28-.53.21c-1.14-.81-2.44-.43-3.66-.42a4.64,4.64,0,0,0-1.56.69,5.85,5.85,0,0,1-1,.44c-.62.18-1.27.28-1.89.45-.77.21-1.25,0-1.44-.9,0,1.11-.62,1.21-1.45,1.09-.58-.08-1.17-.06-1.75-.14a3.43,3.43,0,0,1-.8-.36c-.93.75-4,.74-5.13-.1-1.34.85-2.82.47-4.25.49a1.77,1.77,0,0,0-1,.2c-.68.58-1.17.65-1.49-.44-.45.38-.83.68-1.19,1a1.76,1.76,0,0,1-2.35.17,1.3,1.3,0,0,0-.79-.07c-1,.1-2,.24-3.06.37-.12,0-.29,0-.37,0-.81.65-1.58.35-2.4,0a4.19,4.19,0,0,0-1.29-.08l-3.21-.23s-.05,0-.08,0H123l-.15,1c-.55-.17-1-.33-1.56-.47-.14,0-.36-.08-.44,0-1.08,1-2.4.44-3.61.58a4.83,4.83,0,0,0-.91.22c-.23.06-.52.27-.67.2-.71-.35-1.17.18-1.76.33a15.4,15.4,0,0,1-3,.25h-.47a2.5,2.5,0,0,1-.9,0c-.66-.23-1.23-.72-2-.13-.22.16-.8-.19-1.22-.23a8.63,8.63,0,0,0-2.85-.11,2.75,2.75,0,0,1-2.56-.36c-.06,0-.4.14-.42.25a.86.86,0,0,1-1.26.69c-.34-.12-.55-.58-1-1l-1,.65-.61-.44.06.26a9.51,9.51,0,0,1-1.54.42c-2.25.24-4.52.45-6.78.63a7.08,7.08,0,0,1-1.51-.18l0-.25-1.14.91-.62-1c-.53.87-1,.71-1.62,0-.16-.19-.62-.11-1-.17l-.07.94a2.6,2.6,0,0,1-.28,0,23.51,23.51,0,0,0-3.54-.25c-.85.06-1.44.11-1.49-.94-.14.07-.24.1-.24.12.11,1.09-.48,1.32-1.44,1.28a30.7,30.7,0,0,0-3.18.09,8.14,8.14,0,0,0-1.35.29c-1.56.37-3.12.78-4.69,1.08a11.33,11.33,0,0,1-1.73-.11,4.9,4.9,0,0,0-1.2.23c-.6.16-1.18.36-1.93.58l.33-1.21-.32-.22a3.64,3.64,0,0,1-.22.49c-.44.77-1,1-1.84.55-.14-.09-.39,0-.59,0-.55.09-1.1.21-1.65.31-.06,0-.15,0-.18,0-1.39,1.06-2.88,0-4.32.17s-2.79,0-4.18,0a4,4,0,0,1-2-.2c-.34-.15-.92.19-1.38.34-.71.24-1.42.6-2-.38-1,1-2.12.81-3.3.62a8.62,8.62,0,0,0-1.68,0,10.57,10.57,0,0,1-4.21-.33c-.47-.17-1.17.31-1.77.45-.29.07-.61,0-.9.09a13.87,13.87,0,0,0-1.94.53c-.82.3-1.6.74-2.4,0-.09-.1-.4,0-.6.06l-3.9.91L21.65,123c-.26.2-.52.42-.78.61s-.32.25-.47.24c-1.11-.06-2.21-.15-3.32-.23-.12,0-.28-.1-.35,0a2.68,2.68,0,0,1-2.17.4c-.78-.07-1.22-.13-1.23-1-.6.39-1.08.73-1.58,1a.73.73,0,0,1-.43.11c-1.61-.1-3.21-.18-4.81-.32-.47,0-.92-.3-1.38-.35a1.84,1.84,0,0,0-1,.18,18.38,18.38,0,0,0-1.57,1.12c-1.75-1-1.78-2.89-2.43-4.44a2.59,2.59,0,0,0,1-2.91c-.09-.51.09-1.07,0-1.59-.32-2-.71-4-1.06-5.94a3.15,3.15,0,0,1,0-.75c.19-3.32.41-6.65.57-10,0-.61,0-1.12.6-1.18-.12-.63-.25-1.17-.34-1.72a9.54,9.54,0,0,1-.23-1.75c0-.83.21-1.66.21-2.49,0-1.47-.09-2.94-.14-4.41,0-1.23-.13-2.46-.1-3.69,0-.89.28-1.78.27-2.66-.06-4.5-.23-9-.25-13.48a19.21,19.21,0,0,1,.48-5.64c.56-1.81-.08-3.44,0-5.13.08-1.27.2-2.53.27-3.79a74,74,0,0,1,.48-8c.59-3.48.16-7,.51-10.43a19.64,19.64,0,0,0,.34-2.39c0-1.21-.25-2.41-.32-3.62a15.27,15.27,0,0,1,.05-2.79c.21-1.59.56-3.16.82-4.74A1.84,1.84,0,0,0,2,18.84c-1-.34-.89-1.33-1.36-2,0-.05.38-.64.63-.67a19.21,19.21,0,0,1,2.29,0C3.45,15.24,4,15,4.9,15c.49,0,1.09-.5,1.47-.35,1.58.63,2.62-.58,3.86-1A35.08,35.08,0,0,0,13.82,12c1-.46,1.87-1,2.84-1.46s1.87-.61,2.71-1.08,1.43-1.29,2.27-1.68C22.91,7.15,24,6,25.56,6.12c.47,0,1-.42,1.45-.61a1.74,1.74,0,0,1,.81-.12,1.47,1.47,0,0,1,.64.36c.33.25.63.53.95.8a4.81,4.81,0,0,1-1.06,1c-2.05.92-4.15,1.72-6.18,2.66-1.05.48-2,1.19-3,1.75-.75.4-1.54.73-2.32,1.1l-2.47,1.18c-.14.07-.23.24-.35.36.15.13.29.36.43.36.66,0,1.31-.07,2.11-.12l.33.79c.78-.73,3.4-1.11,4.19-.42.55.48,1,.25,1.55.32,1.6.21,3.2.41,4.81.54a13,13,0,0,0,1.74-.18c1.05-.06,2.11-.08,3.17-.11,1.18,1.61,2.85.31,4.27.68a26.47,26.47,0,0,0,4.65.49,1.89,1.89,0,0,0,.82-.09,7.81,7.81,0,0,1,4.1-.09,4.14,4.14,0,0,0,3.26-.24c.8-.54.66.4,1,.77,0-1,.58-.95,1.27-.84,1.23.18,2.48.23,3.71.4a4.44,4.44,0,0,1,1.12.46c1.15-.1,2.26-.22,3.38-.28a1.93,1.93,0,0,1,.89.23,1.68,1.68,0,0,0,1.62,0c.55-.25,1.39.17,2.1.31.15,0,.33.25.4.21a3.6,3.6,0,0,1,3-.07,6,6,0,0,0,.85.15c.3,0,.68.22.88.1a5.09,5.09,0,0,1,3.26-.36c1.38.13,2.78.21,4.17.3.34,0,.68,0,1,0,.6,0,1.2,0,1.2,1.24.83-1.63,2-1.13,3-1.13a5.11,5.11,0,0,0,1-.23l.5.92c.83-1.68,2.33-1.06,3.56-1.19s2.6-.46,3.5.25a16.6,16.6,0,0,1,2.13-.36c1.18,0,2.37.06,3.56,0,.68,0,1.18,0,1.07.92,0,.21.19.45.39.9a4.27,4.27,0,0,0,.33-.94c0-.45.13-.78.68-.82s.5.49.61.83c0,.08.06.17.09.24a1.62,1.62,0,0,0,.19.06c.44-.92,1.4-1,2.19-1.11a3.45,3.45,0,0,1,2.26.24c.65.42,1,.27,1.5-.31l-.14,1.75c.29-.06.37-.06.4-.09.59-.61.73-1.86,2.08-1.32.83.33,1.81-.09,2.62.69.31.3,1.28.19,1.77-.07s.93-.47,1.42.07a4.12,4.12,0,0,0,1.06.55c0-1.18.59-1.09,1.35-1a7.71,7.71,0,0,0,2.67-.18,1.8,1.8,0,0,1,2,.41,2,2,0,0,0,.54.3l.35-.84c.69-.08,1.42-.2,2.15-.25a3.3,3.3,0,0,1,1.21.15,11.62,11.62,0,0,0,5.15.06,23.32,23.32,0,0,1,3.51.26,5.42,5.42,0,0,0,1.21-.28c.18,0,.39-.14.53-.08.64.26,1.26.57,2,.9.32-1.4,1.32-1.07,2.28-1,1.56.07,3.12,0,4.68,0a11.36,11.36,0,0,1,1.75.31c.4-1.15,1.54-.92,2.51-1,1.36-.05,2.73,0,4.1,0s2.76.27,4.15.27c.83,0,1.65-.35,2.49-.39a14.67,14.67,0,0,1,2.81.14c.25,0,.43.54.6.78a5.08,5.08,0,0,1,1.95-.59c.57.06,1.09.68,1.63,1a3.9,3.9,0,0,0-.78.22c-.44.23-.83.66-1.29.73-.77.12-1.68.49-2.13-.36-2,.21-3.88.4-5.78.63-.85.1-1.68.35-2.54.43a22.81,22.81,0,0,1-2.62.06c-.65,0-1.3-.12-2-.14a24.29,24.29,0,0,0-2.83,0c-1.31.11-2.55,1-3.94.33a.86.86,0,0,0-.72,0,2.66,2.66,0,0,1-2.76.05c-1.44-.55-2.82-.19-4.23,0a13.23,13.23,0,0,1-1.77.16c-.84,0-1.67-.22-2.49-.18-1.28,0-2.55.28-3.83.33s-2.85-.14-4.26,0c-1.07.09-2.09.45-2.78-.72-1,1.16-2.18,1.13-2.79-.17-.24,1.27-1.12,1.31-2,1.25s-1.67-.18-2.64-.29a1.39,1.39,0,0,1-.67.31c-1.68,0-3.36,0-5.05-.13-3.17-.17-6.33-.43-9.51-.58-1.86-.08-3.73,0-5.6,0-.77,0-1.53.25-2.28.23-1.32,0-2.64-.26-4-.22s-2.87.37-4.32.43c-2.12.09-4.24.12-6.36.07a27.41,27.41,0,0,1-6.26-.48,2.26,2.26,0,0,0-.37,0A20.5,20.5,0,0,1,64,19.72a20.12,20.12,0,0,0-5.12-.36,19.19,19.19,0,0,1-3.73-.21,18.61,18.61,0,0,0-6.31-.25c-.37,0-.71.27-1.07.28-3.06,0-6.13.06-9.19.07a10.56,10.56,0,0,1-1.49-.1c-2.29-.32-4.57-.74-6.87-1-1.56-.17-3.14-.11-4.7-.15-1.16,0-2.31,0-3.46-.11-1.39-.11-2.77-.3-4.15-.45-.56-.06-1.12-.07-1.68-.13a27.14,27.14,0,0,0-3.1-.32,24.74,24.74,0,0,1-3.5.28,6.82,6.82,0,0,0-3.39.58c-.66.24-.84.56-.76,1.14a22.69,22.69,0,0,1,.42,2.81c0,1.31-.25,2.63-.31,4q-.17,3.84-.22,7.66c0,2.34,0,4.69,0,7,0,1.44-.1,2.88-.26,4.3-.22,1.9-.71,3.79-.79,5.69-.13,3.18,0,6.37,0,9.56-.12,4.35-.34,8.71-.58,13.06-.07,1.38.6,2.74,0,4.12,0,.12.06.3.07.45.07,1.17.15,2.34.19,3.51,0,.92,0,1.83,0,2.74,0,1.22.5,2.46-.19,3.49a4.84,4.84,0,0,1,.38,1.18c0,.75-.06,1.51-.09,2.26-.13,3.87-.25,7.73-.38,11.59,0,.13,0,.25,0,.38-.07,2-.22,3.93-.19,5.89,0,2.77.84,5.47.88,8.25,0,1,.26,1.92.21,2.86s.31,1.31,1.19,1.33q1.83,0,3.66.15c1.72.08,3.45.24,5.18.26.92,0,2-.53,2.75-.24,1.38.53,2.42-.44,3.55-.24,0-2.09-.06-4,0-6a22.87,22.87,0,0,0,0-4.3c-.17-1.09,0-2.24-.89-2.81a8.8,8.8,0,0,0,.35-1.77,34.36,34.36,0,0,0-.54-5.24,46.47,46.47,0,0,1-.28-7c0-1.09,0-2.18-.12-3.27-.05-.85-.29-1.69-.26-2.54,0-1.45.24-2.91.34-4.36a4.41,4.41,0,0,0-.16-1.3c-.24-1-.63-1.94-.78-2.94-.27-1.84-.42-3.69-.6-5.54a4.42,4.42,0,0,1,.07-1,8.08,8.08,0,0,0,.24-1.36c-.1-2.57-.19-5.15-.38-7.72-.08-1,.17-2,.09-3.1-.28-3.33-.3-6.68-.35-10-.07-4.93-.09-9.86-.13-14.8a2.93,2.93,0,0,0-.05-.84c-.5-1.56.58-2.44,2-2.46s2.64.27,4,.3c3,.07,6,.47,9.12-.18,2.55-.54,5.27-.29,7.92-.38.81,0,1.62,0,2.43,0,2.19-.13,4.39-.21,6.57-.47,1.33-.15,2.75.21,4-.6.18-.12.54,0,.8.05a7,7,0,0,0,1.35.37c3.06,0,6.12,0,9.18,0,2.14.05,4.27.29,6.41.42.36,0,.72-.12,1.09-.13a29.37,29.37,0,0,1,3.25,0c1.92.16,3.76,1.07,5.76.57a2.62,2.62,0,0,1,1.06.22,4.48,4.48,0,0,0,.68.22l8.19.58c.46,0,.92.16,1.38.23a16.18,16.18,0,0,0,2.83.39c3.22-.12,6.43-.34,9.65-.53a21.38,21.38,0,0,0,2.89-.23c1.63-.31,3.24-.79,4.87-1.12q2.91-.57,5.84-1c1.62-.24,3.25-.44,4.88-.59a42.41,42.41,0,0,1,5.5-.34c2.8.1,5.59.52,8.38.64,3.07.13,6.14.13,9.21.08a18.84,18.84,0,0,0,3.3-.51c.55-.1,1-.15,1.4.41a2.26,2.26,0,0,0,1,.84,1.88,1.88,0,0,1,1.25,1.87c0,.94.08,1.89,0,2.83,0,.64-.26,1.27-.31,1.91-.34,4.19-.64,8.39-1,12.58-.14,1.73-.37,3.46-.54,5.19a.89.89,0,0,0,.63,1.07,1.34,1.34,0,0,1,.48,2.13,9.5,9.5,0,0,0-.54,1.29c-.1.1-.58.34-.61.62-.26,3.22-.51,6.45-.65,9.69-.11,2.52-.09,5-.08,7.58a49.74,49.74,0,0,0,.18,5.6,44.14,44.14,0,0,1,.48,7.26c0,.72,0,1.44,0,2.15,0,.88,0,1.76-.05,2.64,0,1.09,0,2.18,0,3.26s-.24,2-.21,3,.39,1.73.44,2.61c.11,2,.15,4,.15,6.08a17.2,17.2,0,0,1-.32,2.37c.87,0,1.82,0,2.78,0,1.19,0,2.45.24,3.36-.89a.89.89,0,0,1,.6-.2c1.08-.06,2.17,0,3.24-.15s2.06-.35,3.12-.54c-.05-1,0-1.94-.15-2.83-.25-2-.66-3.92-.84-5.9s-.11-3.87-.23-5.8c-.1-1.64-.48-3.28-.45-4.91s.43-3.06,0-4.61a2,2,0,0,1,.06-.73,14.67,14.67,0,0,0,.25-1.85c.08-5.49.13-11,.21-16.49a19.53,19.53,0,0,1,.24-2.52c.28-1.87.75-3.73.85-5.62.2-3.71.17-7.43.28-11.15,0-.89.29-1.77.31-2.67,0-2.87,0-5.74.05-8.62a13.37,13.37,0,0,1,.49-2.37s-.29-.24-.29-.48c0-1.08.05-2.17.13-3.26.15-2,.31-4,.51-6,.07-.68.29-1.35.42-2a1,1,0,0,0,0-.62c-.74-1.11.87-1.59.39-2.68ZM24.52,48.48l0,0c-.33,1.89-.5,3.21-1.91,3.29-.63,1.08-1.21,2-1.76,3a2.72,2.72,0,0,0-.41,1.06c0,1.22,0,2.44,0,3.65q.14,3.54.35,7.08c0,.21.27.41.41.62.13-.2.27-.4.39-.61a7.15,7.15,0,0,1,.42-.77c.6-.75,1.22-1.49,1.84-2.23A23.06,23.06,0,0,0,25.6,61.5c.64-1,1.12-2.09,1.68-3.13.36-.68,1.16-1.11,1.47-1.62a7.58,7.58,0,0,1,2-1.93,8.15,8.15,0,0,0,.72-.72c.35-.35.74-.69,1.06-1.07a1.89,1.89,0,0,0,.57-.92c.12-1.29.21-1.39,1.47-1.13,0-.44,0-.87,0-1.29,0-1.56,0-3.13-.18-4.67-.1-.91-.64-1.76-.8-2.67a6.62,6.62,0,0,1,0-3.82c-.2-.25-.57-.5-.55-.71a10.91,10.91,0,0,1,.53-1.74,7.46,7.46,0,0,0-.82,0c-1.44.17-2.87.4-4.31.53a3.08,3.08,0,0,0-2.61,1.79,13.79,13.79,0,0,1-2.52,4.42c-.08.11-.37.06-.76.11a9.07,9.07,0,0,1,.45-1c.35-.61.77-1.19,1.09-1.81.09-.19-.08-.5-.12-.75-.28.08-.63.08-.83.26-.58.52-1.12,1.11-1.65,1.69a.7.7,0,0,0-.1.53c.22.86.18,1.86,1.18,2.34a5.55,5.55,0,0,0-2.15,4.11,37.45,37.45,0,0,0,0,4.62l.31,0a3.36,3.36,0,0,1,.26-.54,13.38,13.38,0,0,1,1-1.29c.45-.51.95-1,1.44-1.48ZM72.2,65.22l0,0,.25-.71-.21-.15-1.14.68L71.18,64l1.66-1v.78a1.17,1.17,0,0,0,.33-.84c0-2.84,0-5.68-.11-8.53a2.18,2.18,0,0,0-.41-1.17,1.43,1.43,0,0,1-.16-1.63,4.47,4.47,0,0,0,.43-1.85,25.16,25.16,0,0,0-.41-3l-1.91-.28c.53-.82.94-1.44,1.32-2.06.21-.35.56-.74.53-1.1-.16-2.54-.38-5.09-.63-7.63,0-.47-.24-.89-.85-.38a1.37,1.37,0,0,1-.85.24c-1.32,0-2.63,0-3.94-.07-1-.08-1.92-.32-3-.51-.17.29-.63.74-.62,1.17,0,1-.67,1.32-1.36,1.75a2.26,2.26,0,0,1,.24-1.17c.53-1,.36-1.26-.73-1.34-.94-.06-1.87-.25-2.81-.31a.89.89,0,0,0-.7.47c-.2.68-.25,1.4-.4,2.09a11,11,0,0,1-.45,1.2l-.6-1.26-.36.13c.15.49.13,1.16.46,1.44,1.17,1,1.33,1.82.43,3.14-.09.13,0,.35-.07.53-.14,1.31-.3,2.62-.42,3.94a3.73,3.73,0,0,0,0,1.91,7,7,0,0,1,.47,3.17A5,5,0,0,1,55.93,53a2.24,2.24,0,0,1,.43.17c.23.14.43.31.65.47a4.62,4.62,0,0,0,.37-.9c.12-.58.12-1.19.26-1.76.06-.26.32-.48.49-.72.18.16.36.33.55.48s.38.21.49.36a2,2,0,0,1,.5,1,6.9,6.9,0,0,1-.31,1.58,7.24,7.24,0,0,0-.54-1.27c0-.09-.45,0-.69.07.21.79-.83,1.6,0,2.41.11.11,0,.48-.06.84l-1.44-1.22c-.57,2.18.24,3.8,1,5.55l1.43-3.5A3.48,3.48,0,0,1,60,59.2c0,.13-.25.31-.41.43s-.47.18-.53.33a17.86,17.86,0,0,0-1.47,3.8c-.19,1.07.26,2.24.29,3.38.08,2.49.08,5,.07,7.49,0,.47-.36,1-.3,1.4.33,2.17.73,4.33,1.12,6.49a9.76,9.76,0,0,1,.42,1.78A28.39,28.39,0,0,0,60,91.59a8,8,0,0,1,.08,1.4c.13,1.31.72,1.91,2,1.86,1.61-.07,3.21-.26,4.82-.34a17.16,17.16,0,0,1,2.14.12,16.35,16.35,0,0,0,2.2.2c1.93-.11,3.85-.29,5.77-.46.87-.07,1.73-.18,2.59-.31,1.8-.26,3.6-.68,5.42-.79,3.4-.22,6.8.39,10.22.21a37.75,37.75,0,0,0,4.75-.1c2.36-.4,4.75-.57,7.13-.85.43,0,.86-.13,1.29-.21,1.3-.24,2.6-.6,3.91-.71,1.92-.16,3.85-.11,5.77-.19a5.73,5.73,0,0,0,1.76-.27,26.18,26.18,0,0,1,7.57-1.37c3.17-.28,6.37-.19,9.55-.24a3.41,3.41,0,0,1,1.39.21,13.89,13.89,0,0,0,6,1,21.76,21.76,0,0,1,3.94.71c.54.09,1,0,1-.73,0-1.25.12-2.5.06-3.75-.13-2.86-.38-5.72-.51-8.58S148.64,76,146.06,76a5.31,5.31,0,0,1-1.09-.19c-.4,0-.63.83-1.34.18a1.58,1.58,0,0,0-2.08,0c-.38.44-.54.41-1,0-.23-.22-.72-.2-1.1-.23-.2,0-.5.25-.59.18-1-.84-2,.62-3.12.1-.67-.3-1.69.09-2.53.25-.51.09-1,.52-1.47.48a19.36,19.36,0,0,1-2.65-.61,2.28,2.28,0,0,1-.57.86,2.77,2.77,0,0,1-1.36.44,2.53,2.53,0,0,1-1.3-.22c-.53-.26-1-.41-1.35.17a.85.85,0,0,1-.26.24,2,2,0,0,0-2.19,0,4.07,4.07,0,0,1-1.77,0,1.31,1.31,0,0,1-.83-.31c-.36-.45-.64-.45-1.08-.11a3.35,3.35,0,0,1-1,.36c-.18.06-.37.09-.56.14a5.05,5.05,0,0,1-1.34.33c-.79,0-1.58-.19-2.37-.24s-1.28,0-1.92,0c-2.24-.06-4.42-1.06-6.72-.18-.65.25-1.56-.17-2.31-.27l-.4.87-1.2-.77-.26-.43a8.1,8.1,0,0,1-.47.93c-.64,1-1,1-1.71,0l-4.3.64.65-.53c-.24-.11-.49-.2-.72-.32s-.38-.24-.63-.4c-.07.23-.11.38-.15.52-.24,1-.8,1.13-1.6.57-.23-.16-.71,0-1.06.07s-.65.32-.92.26c-.67-.17-1.32-.48-2-.72-.19-.07-.52-.18-.57-.11-.56.72-1.3.39-2,.41a2.24,2.24,0,0,0-.72.23c-.28.1-.56.33-.82.31-.82-.06-1.72.14-2.41-.57-.09-.08-.43,0-.64.12a4.81,4.81,0,0,1-1.18.5A22.33,22.33,0,0,1,75.9,79c-1-.07-2.05-.36-3.09-.49a3.94,3.94,0,0,0-1.53.09c-1.09.32-2.14.71-3.16-.21-.15-.14-.46-.13-.7-.15a11.71,11.71,0,0,1-1.57-.08,7.51,7.51,0,0,0-4.33-.06c-.22.09-.76,0-.8-.16-.2-.78-.82-.63-1.36-.82s-.69-.75-1-1.19a.65.65,0,0,1,.19-.61c.51-.3.92-.85,1.73-.43a3,3,0,0,0,1.84.1c.7-.15,1.46-.19,2-1a2.45,2.45,0,0,1,3.14-.69l-.82,2.8.31.17,3.5-2.38a4.76,4.76,0,0,0-.18.71,1.89,1.89,0,0,0,0,.94c.08.16.52.18.81.19.5,0,1,0,1.49,0,3.66,0,7.31.07,11,0,.67,0,1.32-.34,2-.37,1.55-.07,3.11,0,4.67-.06,2.64,0,5.29,0,7.93-.08a47.54,47.54,0,0,0,4.76-.43,27.91,27.91,0,0,1,8-.46,53.83,53.83,0,0,0,7.83,0,.65.65,0,0,0,.27-.08,5.46,5.46,0,0,1,3.18-.13,19.67,19.67,0,0,0,4.13,0c1.21-.14,2.38-.7,3.59-.8,2.49-.2,5-.19,7.48-.31,3.09-.15,6.2.68,9.28-.32a11.31,11.31,0,0,1,1.86-.07.81.81,0,0,0,.56-.52c.22-2.32.43-4.64.56-7,.08-1.42,0-2.85,0-4.24a4.67,4.67,0,0,1-1.86-.34,1.78,1.78,0,0,0-2.25.19c-.58.36-1.22.89-1.91.55L143.06,60l-.31-.1A1.28,1.28,0,0,1,141.11,61a.43.43,0,0,0-.34.13c-.69.82-1.73,1-2.61,1.44-1.11.57-2.13.38-2.37-.53a2.9,2.9,0,0,0-2.59,1,.61.61,0,0,1-.29.22c-.89.21-1.78.43-2.67.58a.93.93,0,0,1-.63-.31,1.8,1.8,0,0,0-2.46-.19,1.47,1.47,0,0,1-1.61.28c-.79-.36-1.6-.78-2.51-.17-.24.16-.67.06-1,.08l-1.59.08-.84-.77c-.59.17-1.15.47-1.25.35-.58-.63-1.21-.4-1.88-.31a11.09,11.09,0,0,1-1.61,0,5.65,5.65,0,0,0-.82-.82s-.49.29-.47.39c.24,1.17-.36.73-.91.52a5.08,5.08,0,0,0-1.15-.28c-.4-.06-.82-.06-1.28-.09a2.86,2.86,0,0,1-.88.31,27.42,27.42,0,0,1-3.27-.1c-1.54-.16-3.06-.48-4.59-.66-1-.11-2,0-2.59-1.2-.18.49-.29.77-.39,1-.27.68-1.06,1.08-1.56.61s-1.3-.4-2-.43a13.7,13.7,0,0,1-2-.22,18.34,18.34,0,0,0-5.33-.6,57.89,57.89,0,0,1-6.45.29c-1.82,0-3.75-.09-4.36-2.42,0-.1-.21-.17-.23-.27-.09-.37-.32-.91-.16-1.09a1.28,1.28,0,0,1,1.11-.26c.93.29,1.81.71,2.76,1.11.13-.4.52-.57,1.13-.33.24.09.55,0,.83,0,.9,0,1.88-.46,2.73.74,0-.53-.07-.76-.06-1,0-1.26-.15-2.62,1.47-3.15.15,0,.28-.31.31-.49C87,53,88,52.42,89.4,53.07c-.33,1-.58,2-1,3a2.05,2.05,0,0,1-1.07,1,9.09,9.09,0,0,1-2,.31c0,.65.24,1,.92.85A14.06,14.06,0,0,1,89.05,58a2.64,2.64,0,0,0,2.7-1.22A37.35,37.35,0,0,1,94.1,53.3a6.62,6.62,0,0,0,1.39-4.1c0-.23-.18-.47-.28-.7a2.28,2.28,0,0,0-.68.34c-1.21,1.26-2.38,2.53-3.57,3.79a1,1,0,0,1-1.55-.2c-.17-.32-.16-1,.06-1.19,1.12-.88,2.55-1.39,3.11-2.88,0,0,.06,0,.07,0,.72-1.09,2.11-1.66,2.38-3.09a.3.3,0,0,1,.19-.19c1-.19.76-.91.69-1.54-.08-.78-.24-1.56-.34-2.34-.06-.54-.09-1.07-.13-1.61l-.35,0c-.18.26-.37.51-.53.78a13.71,13.71,0,0,1-.84,1.45c-.39.5-1,.86-1.34,1.37-.53.72-.93,1.53-1.42,2.27S89.88,47,89.3,47.73s-1.15,2.13-2.43,2.13c-.58,1.14-.1,2.5-1.06,3.49l-.4-.71a3.48,3.48,0,0,0-.44.59,9.4,9.4,0,0,1-.74,1.85c-.62.87-.78,2.37-2.43,2.06-.35-.07-1,0-1-.14a3.17,3.17,0,0,1,0-1.37c.05-.24.33-.44.49-.66.33-.44.65-.89,1-1.31.66-.81,1.34-1.61,2-2.41.25-.15.34-.68.5-.7.73-.09.69-.69.9-1.13.32-.67.32-1.59,1.36-1.71.09,0,.14-.32.23-.48.38-.73.59-1.78,1.18-2.09a7.62,7.62,0,0,0,2-2,17,17,0,0,0,1.89-2.11,5.55,5.55,0,0,1,2.58-2.55c.16-.06.39-.21.39-.31s-.13-.47-.27-.51c-1.07-.34-2.22-1-3.21-.81-.71.14-1.25,1.4-1.78,2.22a4,4,0,0,0-.32,1.27l-1.4-.52,0,0a5.22,5.22,0,0,1,1.08-3.31c-.68-.1-1.39-.27-2.1-.31-.92-.06-1.85,0-2.77,0-.69,0-1.38.09-2.07.08-.9,0-1.8-.11-2.7-.13a.73.73,0,0,0-.54.27c-1.06,1.41-2.09,2.84-3.12,4.27a6.79,6.79,0,0,0-.68.94c-.3.58-.2,1.42-1.07,1.66,0,0,.06.32.09.5.74-.23.5.34.5.65,0,.78-.07,1.55-.08,2.33a1.59,1.59,0,0,0,.22.55c.17-.11.39-.17.5-.32.42-.57.79-1.17,1.22-1.73.19-.23.52-.58.71-.53a1.5,1.5,0,0,1,.92.65c.53,1,0,1.81-1.09,2a5.76,5.76,0,0,0-1.15.53l.64.42a14,14,0,0,1-1,2.92,2.2,2.2,0,0,0-.49,2.18,14.85,14.85,0,0,1,.27,3.8,11.6,11.6,0,0,0,.07,1.77,13,13,0,0,1,.16,5.76A2.72,2.72,0,0,1,76.24,66c.05,1.95.09,3.91.06,5.87a3.25,3.25,0,0,1-.46,1.55,1.12,1.12,0,0,1-1,.46,1.27,1.27,0,0,1-.6-.93,1.63,1.63,0,0,0-1.16-1.61c-.12,0-.2-.22-.14-.14l.43-1.29c-.64-.18-.26-.44-.12-.79a6.16,6.16,0,0,0,.65-3.65c-.25-1.09-.33-1.09-1.21-.41A1.66,1.66,0,0,1,72.2,65.22ZM41.9,98.68l-.38,0a9.59,9.59,0,0,0,0,1.2c0,.45.2.9.25,1.35.25,2.29.49,4.57.71,6.86a6.93,6.93,0,0,1-.05,1.29,9.19,9.19,0,0,0-.19,1.23c.07,1.52.21,3,.31,4.55.08,1.27.17,2.54.19,3.82,0,.63.26.82.85.77a76.65,76.65,0,0,1,7.73-.17c.67,0,1.34-.22,2-.25,1.16,0,2.33,0,3.49-.07,2.1-.16,4.2-.4,6.3-.6.75-.08,1.5-.11,2.24-.23,1.62-.27,3.22-.61,4.84-.86,1.2-.19,2.42-.27,3.63-.42s2.43-.48,3.65-.52c2.62-.06,5.25.07,7.87,0,2.95-.06,5.9-.23,8.84-.38,2.55-.14,5.09-.4,7.64-.47,1.51,0,3,.17,4.53.26a39.41,39.41,0,0,0,9.27-.28,71.67,71.67,0,0,1,7.85-1c4.19-.28,8.41.21,12.6-.45,2.36-.37,4.75-.57,7.14-.77,1.43-.12,2.87-.11,4.31-.11.81,0,1.62.09,2.6.15a10.84,10.84,0,0,1-.59-2.09q-.18-3.33-.21-6.65c0-2.88,0-5.75,0-8.63,0-.68.2-1.51-1-1.46-.13,0-.24-.29-.4-.37a7.87,7.87,0,0,0-1.49-.66,24,24,0,0,0-2.91-.52,3,3,0,0,0-1.57.17c-1.1.53-1.48.5-2-.28l-1.11-.31c-.17,0-.42-.2-.49-.14-.8.76-1.29.21-1.77-.53l-.39.78-2.06-.8-.67.84-.64-.49a10.41,10.41,0,0,1-1.39.51,9.89,9.89,0,0,1-1.95.23,11.9,11.9,0,0,1-1.76-.27c-.5-.08-1.12-.39-1.49-.2-.68.34-1.18.55-1.47,0-.65.2-1.13.4-1.64.5s-1.06-.06-1.48.15a14.35,14.35,0,0,1-4.13.86c-.89.16-1.8.21-2.69.34-1.83.27-3.66.57-5.49.82a25.79,25.79,0,0,0-3.85.46c-.91.27-1.64.51-2.14-.1a6.09,6.09,0,0,1-1.33.48c-.68.08-1.45-.25-2,.54-.06.09-.36.1-.52,0-.86-.23-1.72-.48-2.68-.76-.24.16-.66.63-1.11.67a12.89,12.89,0,0,1-2.45-.25,4.31,4.31,0,0,0-.86-.11c-1.21.1-2.41.25-3.62.35-.16,0-.37-.21-.5-.36-.36-.41-.59-.64-1.2-.19-1,.76-1.92.6-2.46-.08-.58.08-1.3,0-1.58.28a2,2,0,0,1-2,.5,1.24,1.24,0,0,0-.64.06c-1.28.8-2.69.59-4.08.63a12.48,12.48,0,0,0-3.75.13,11.21,11.21,0,0,1-3.58.23c-1,0-1.91-.32-2.87-.36-1.47-.06-2.94,0-4.41,0l-3.38,2.28-1.31-1.23c-.92,1.33-1.35-.11-1.9-.43-.27.38-.44.89-.66.9a15.63,15.63,0,0,1-6.07-.82c-.94,1-4,1.37-4.55.65-.22.21-.43.56-.68.6C42.66,99.64,42,99.59,41.9,98.68ZM167.6,58.5c-.74,12.5-1.5,24.86-1.21,37.3l-.66-.18a1,1,0,0,0,.37.58c.2.2.54.43.54.65,0,.65.36,1.39-.36,1.94-.08,0,0,.41.11.61a5.58,5.58,0,0,1,.45,1.12c.16,1.37.24,2.76.35,4.14s.23,3,.34,4.49a1.54,1.54,0,0,0,1,1.56,15.71,15.71,0,0,0,2.41,1c1.06.16,2.24.68,3.2-.45a8.13,8.13,0,0,1,1.56-1.28c1.57-1.16,3.22-2.22,4.72-3.46,2-1.67,3.91-3.47,5.86-5.21,3-2.63,3.06-3,2.69-6.93-.15-1.49,0-3-.12-4.5-.07-1.23-.24-2.45-.36-3.68-.16-1.7-.56-3.4-.12-5.12,0-.11.05-.28.12-.31.87-.39.66-.8.08-1.28a.81.81,0,0,1-.2-.49c-.12-1.26-.27-2.52-.33-3.78s-.06-2.63,0-4a5.89,5.89,0,0,1,.42-1.41c-.73,0-.66-.65-.65-1.3a9.23,9.23,0,0,0,0-2.41,26.89,26.89,0,0,1-.57-7c0-2.41-.05-4.81-.14-7.21,0-.86-.33-1.71-.34-2.57,0-3.11,0-6.23,0-9.34a24.33,24.33,0,0,1,.05-3.31c.18-1.45.54-2.87.81-4.31,0-.15,0-.37,0-.45-.86-.82-.37-1.63,0-2.45-.72-.53-.77-1.09-.19-1.5a23.69,23.69,0,0,1-.3-6.25c.1-2,.4-4.08.63-6.18h.65a2.26,2.26,0,0,0-.12-.51c-.86-1.54-.21-3.18-.27-4.77-.05-1.39.26-2.79.35-4.2,0-.12-.46-.43-.59-.38a6.86,6.86,0,0,0-1.8.94c-.54.44-1,.58-1.52.11-.74.66-1.42,1.29-2.11,1.9-.08.08-.25.16-.33.12-.69-.32-.83.19-1.06.65a1.84,1.84,0,0,1-.63.64c-.88.51-1.79,1-2.69,1.45s-2.05,1.06-2.85,1.46a7.92,7.92,0,0,1-.82,1c-1.25,1.07-2.56,2.07-3.77,3.18a2.14,2.14,0,0,0-.66,1.88,25.81,25.81,0,0,1-.28,3.81,1.12,1.12,0,0,1-.11.53c-.73.89-.53,1.95-.52,3a3.12,3.12,0,0,1-1,2.83c.62,1.27.5,1.84-.65,3l1,.66-1,.58c.36.26.95.48,1,.75.07.77,0,1.63-1.11,1.85l1,.27c.12,1.44.12,1.44-1,1.81.17.58.16,1.45.54,1.68.86.52.52,1,.32,1.65s-.7,1.33.21,1.88c.09.06.06.35.07.53a12.18,12.18,0,0,1,0,1.48,9.88,9.88,0,0,1-.37,1.78c-.19.63-.78,1.23.18,1.75.12.06.13.4.12.61,0,2.41,0,4.81-.08,7.22a2.51,2.51,0,0,1-.18.61l-.76-.82v1.94ZM98.2,54.23A11.15,11.15,0,0,1,98.69,56c.06.59,0,1.19,0,1.78,0,.24.21.67.31.66.71,0,1.35.74,2.11.2.12-.08.36,0,.53,0,2.09.32,4.12,1.23,6.31.7a2.6,2.6,0,0,1,1,.14,8.07,8.07,0,0,0,1.35.27c3,0,6,0,9,0,1.39,0,2.77.29,4.16.37.53,0,1.12-.36,1.61-.23a16.27,16.27,0,0,0,6.48.27c1.32-.2,2.64-.37,4-.53a14.32,14.32,0,0,0,1.48-.1c1.75-.38,3.49-.83,5.24-1.23,1.45-.33,2.89-.66,4.34-.94a8.05,8.05,0,0,1,2.28-.21c.8.1,1.14-.12,1.16-.88a32.35,32.35,0,0,1,.59-6.56,44.84,44.84,0,0,0,.59-6.69c.1-1.34.2-2.68.29-4q.18-2.82.33-5.64c0-.09-.11-.18,0-.07-.46.13-.77.24-1.08.3s-.56,0-.84,0c-2.28.22-4.45,1.12-6.79,1a19.35,19.35,0,0,1-3.82-.09,12.2,12.2,0,0,0-3.39-.3,8.14,8.14,0,0,1-1.29-.17c-.86-.12-1.71-.26-2.56-.36-.56-.07-1.41.12-1.63-.18-.6-.82-1.3-.2-1.92-.35-.3-.07-.67.21-1,.25a13.21,13.21,0,0,0-1.91.14c-.63.17-1.17.53-1,1.4s.09,1.75.16,2.62c0,.44.14.87.21,1.27a9.43,9.43,0,0,0-.29,1.46,16,16,0,0,1,0,2,13.89,13.89,0,0,1-.86,2.79.53.53,0,0,1-1,0,9.45,9.45,0,0,1-.58-2.4c-.11-1.18,0-2.38-.11-3.56a3.28,3.28,0,0,0-.51-1l-.28.12-.28,2.21c-1-.62-1.55-.36-1.88.8-.06.19-.27.34-.4.51-.14-.22-.4-.45-.37-.64a1.7,1.7,0,0,1,.48-.84c.55-.54,1.16-1,1.74-1.54.08-.07.16-.25.12-.32-.55-1,.26-1.54.76-2.22a1.89,1.89,0,0,0,.09-1.28,1.13,1.13,0,0,0-.89-.14,31.73,31.73,0,0,0-3.83,2.64A21.44,21.44,0,0,0,114.5,40a1,1,0,0,1-.8.26c-.17,0-.35-.41-.39-.65a.77.77,0,0,1,.8-1c.6-.05,1.27-.19,1.26-1a2.34,2.34,0,0,1,1.16-2.28,1.2,1.2,0,0,0-1.87-.18c-.41.3-.66.8-1.07,1.11a1,1,0,0,1-.91.18,2.76,2.76,0,0,0-3.75.75,9.63,9.63,0,0,1-1.79,1.45,2.7,2.7,0,0,1-1.09.15l-.12-.24c1.37-.22.67-1,.67-1.65-1.59-.42-1.06,1-1.51,1.76-.24-.36-.39-.6-.55-.83-.67-1-1.8-1.23-2.32-.53s-1,.85-1.6,0l-.26-.39-2.06.67c0,1.3,0,2.73,0,4.16,0,.44-.2.88-.23,1.33a12,12,0,0,0-.06,2c0,.51.29,1,.33,1.51.07.9.07,1.8,0,2.71,0,.36-.15.72-.18,1.09a7,7,0,0,0,0,1.29C98.31,52.62,98.79,53.56,98.2,54.23ZM33.52,69.77a2.57,2.57,0,0,1-.16-2.67,10.26,10.26,0,0,0,1.37-1.95,7.22,7.22,0,0,0,.69-4.77,8.66,8.66,0,0,1-.37-1.72c-.14-1.94-.21-3.89-.35-5.83,0-.21-.26-.41-.41-.61a4.07,4.07,0,0,0-.37.55c-.15.29-.18.66-.39.88-1,1.07-2.06,2.09-3.09,3.15-.31.32-.55.7-.86,1s-.83.78-1.25,1.16c-.17.16-.55.32-.53.43.24,1.3-1.65,1.49-1.42,2.76-1.3,1.42-2.61,2.83-3.9,4.26a1.05,1.05,0,0,0-.33.53,1.51,1.51,0,0,1-.91,1.29.78.78,0,0,0-.35.48c-.05,1.3-.06,2.6-.06,3.89,0,.18.19.35.39.69a13.83,13.83,0,0,1,4.61-5.92c.1-.16.32-.55.59-.91.5-.67,1-1.32,1.53-2,.83-1.07,1.6-2.2,2.52-3.2,1.08-1.17,2.3-2.23,3.57-3.44.11.51.35,1,.25,1.31a1.72,1.72,0,0,1-.83,1.09c-.79.23-.87.55-.5,1a19.57,19.57,0,0,0-2,1.9c-.83,1-1.39,2.27-2.6,3a2.29,2.29,0,0,0-.7,1c-.44.87-.82,1.76-1.25,2.64-.06.13-.2.31-.31.31-.83,0-1.09.74-1.55,1.21a11.19,11.19,0,0,1-1,.81,4.19,4.19,0,0,1-.43,1.25c-.4.51-1,.87-1.43,1.38a4.39,4.39,0,0,0-.59,4.16,24.12,24.12,0,0,1,1.2,6.06c0,.43.36.86.63,1.45l1.55-2.22c.94,1,1.45-.82,2.51-.52-.86.92-1.59,1.75-2.36,2.52-.46.46-1,.84-1.49,1.25l-.24-.19a34.58,34.58,0,0,1-.39,3.94,19.23,19.23,0,0,0-.24,7c.22,1.41.39,2.83.64,4.23a8,8,0,0,0,.55,1.37,4.6,4.6,0,0,1,.56-.63c.68-.47.46-1.72,1.57-1.81-.06-.87.76-1.06,1.17-1.56A28.35,28.35,0,0,0,28.39,97c.15-.24.52-.34.8-.52-.05.53-.27,1.08-.1,1.27.62.66.37.91-.33,1.13-.11,0-.21.21-.28.34-.51,1-.75,2.15-2.06,2.46-.16,0-.32.29-.41.47-.33.7-.63,1.42-1,2.2-.67-.75-.82-.7-1.21.14.26.36.68.68.65,1a3.41,3.41,0,0,1-.61,1.2c-.9,1.61-.34,3.26-.32,5.11,3.06-2,4.18-5.43,6.64-7.34l1.11.64c-.08-.41-.06-.59-.14-.69-.54-.67,0-1.06.43-1.37s.71-.13,1.07-.18c0,.51.06,1.13-.2,1.5a24.7,24.7,0,0,1-2.15,2.38l-.49-1.16a2.4,2.4,0,0,0-.15,1.31c.15.81-.07,1.25-.94,1.36a1.51,1.51,0,0,0-.79.49,6,6,0,0,0-.73,1.06,3.46,3.46,0,0,0-.59,1.12,2.56,2.56,0,0,1-2.56,2.32,8.68,8.68,0,0,0-.42,1.65c-.07,1.56-.06,3.12-.05,4.68,0,1,.21,1.13,1.22,1,1.41-.16,2.82-.35,4.23-.47.58,0,1.17.13,1.75.09,2.19-.11,4.39-.31,6.58-.41a27.78,27.78,0,0,1,2.84.21c0-.71,0-1.3,0-1.88-.17-5.13.08-10.29-.69-15.39-.22-1.44-.51-2.88-.78-4.31a23.65,23.65,0,0,1-.5-2.45c-.26-3.33-.48-6.67-.7-10-.08-1.33-.1-2.67-.18-4a.58.58,0,0,0-.29-.42.51.51,0,0,0-.48.12c-.43.64-.83,1.3-1.24,2-.12.21-.25.41-.42.66l-.44-.7a1.7,1.7,0,0,0-.32.87c-.13.57-.11,1.27-.45,1.67a10.74,10.74,0,0,1-1.92,1.45,1.9,1.9,0,0,0-.49.49c-.43.67-.83,1.35-1.31,2.14L29.17,89c-.12.27-.24.41-.23.55a2.8,2.8,0,0,1-2,2.86,2.19,2.19,0,0,0-1.39,2.13c-.07.47-.73.85-1.13,1.27-.07-.49-.15-1-.21-1.48a.47.47,0,0,1,.1-.26c.71-1.08,1.4-2.17,2.15-3.23s1.55-2.49,2.94-3.19c.07,0,.1-.15.14-.23.53-.93,1.89-1,2.28-2,0,0,.11-.09.16-.08.91.15.93-.63,1.18-1.15.11-.22.11-.5.25-.69.75-1,1.55-2,2.29-3,.6-.81,1.57-1.38,1.21-2.73a34.6,34.6,0,0,1-.54-4,6.14,6.14,0,0,0-.47-1.17c-.76,1.27-1.23,2.45-2.56,2.87a.92.92,0,0,0-.5.64c-.19,1.11-2,1.13-1.7,2.58,0,0-.25,0-.33.13-.75.74-1.53,1.47-2.23,2.26-.51.56-.92,1.21-1.44,1.91-.18-.37-.22-.63-.37-.74-.69-.49-.31-1,0-1.43A6.64,6.64,0,0,1,28,79.61c.42-.36.65-1.08,1.52-.74.2.08.68-.55,1-.85l-.59-.4a18.29,18.29,0,0,1,1.61-1.87,22.58,22.58,0,0,1,2.26-1.57c.06-.73.2-1.8,1.76-1.73.24,0,.76-.75.73-1.11-.15-1.54-.44-3.06-.71-4.58,0-.18-.22-.32-.38-.54a7.83,7.83,0,0,1-.33,2A7.65,7.65,0,0,1,33.52,69.77Zm10.86,9.69c0,.13.16.53,0,.72a14.73,14.73,0,0,1-1.82,2.27c-.55.53-1,1.4-2.1,1-.23-.09-.71-.07-.78.06s-.23.78-.08.94a2.61,2.61,0,0,1,.49,2c0,1.31.08,2.62.16,3.93a3.74,3.74,0,0,0,.3.89,8.38,8.38,0,0,0,.74-.72c1.17-1.4,1.62-3.49,3.77-4-.47-1-.32-1.29.85-2.15a6.36,6.36,0,0,1,.4-1.36c1-1.73,2.12-3.43,3.19-5.14.78-1.25,1.57-2.5,2.34-3.76.31-.52.75-.62,1.14-.23a1.09,1.09,0,0,1,.19,1c-.46.82-1.07,1.55-1.59,2.34a8,8,0,0,0-1.27,2.21A7.15,7.15,0,0,1,48.91,82c-1,1.38-1.72,2.9-2.57,4.35-.13.23-.31.56-.5.59-.92.15-1.18.75-1.24,1.56a1.59,1.59,0,0,1-.14.73c-.87,1.31-1.78,2.6-2.66,3.91-.49.74-.95,1.51-1.52,2.41,1.3.1,2.45-.12,3.23.32,1.39.79,2.6,0,3.88,0a.77.77,0,0,0,.51-.37c.37-.63.67-1.29,1-1.91.47-.82.94-1.63,1.47-2.41.81-1.21,1.69-2.38,2.51-3.59.68-1,1.26-2.06,2-3a4.53,4.53,0,0,0,1.09-4c-.34-1.64-.59-3.3-.85-5a5.07,5.07,0,0,1,.08-1c.05-.63.14-1.26.14-1.89s-.1-1.3-.12-2,0-1.41,0-2.11C55,65.33,54.74,62,54.49,58.6c-.06-.84-.08-1.69-.19-2.52a5.5,5.5,0,0,0-.43-1.15c-1.41,1.5-2,3.42-3.55,4.66-.11.09-.08.35-.13.54a1.8,1.8,0,0,1-.19.62c-.76,1.1-1.55,2.19-2.32,3.29-.52.73-.67.73-1.1,0a2.68,2.68,0,0,0-.36-.38c.06.8.38,1.6.11,2.08a41.6,41.6,0,0,1-2.86,4.13c-.42.58-.34.88.27,1a13.3,13.3,0,0,1-1.07,1.94c-.6.76-1.11,1.63-2.26,1.79s-1.56.87-1.15,2.13a2.28,2.28,0,0,1,.1.74c0,1.52.07,3,.12,4.58a2.27,2.27,0,0,0,.22.65,2.79,2.79,0,0,0,.57-.44c1.09-1.44,2.17-2.88,3.23-4.34.28-.39.37-1,.73-1.25,1.31-.88,1.94-2.27,2.79-3.49.71-1,1.15-2.22,1.81-3.28s1.41-1.71,1.93-2.67a25.46,25.46,0,0,0,1.3-3.24c.41-1.08.73-1.25,1.91-1a5.77,5.77,0,0,1-1.23,4.22c-.63.88-1.12,1.87-1.71,2.78a16.55,16.55,0,0,1-1.2,1.59c-.58.7-.6,1.79-1.59,2.22-.12,0-.1.4-.16.61a1.45,1.45,0,0,1-.17.52C46.76,76.4,45.61,77.88,44.38,79.46ZM38.64,63a8.62,8.62,0,0,1,.61-1.32c.78-1.12,1.64-2.19,2.38-3.34a28.42,28.42,0,0,0,1.63-3c.37-.74.63-1.53,1-2.27.92-1.94,1.85-3.87,2.82-5.79a25.45,25.45,0,0,1,1.43-2.41c.53-.81,1.13-1.56,1.67-2.37s.79-2,2.13-2c.86,0,1.07-.44,1-1.18A30,30,0,0,1,53.2,36c.06-1-.27-1.18-1.22-1.14-1.88.09-3.7.84-5.63.47a1.19,1.19,0,0,0-.91.37,34.18,34.18,0,0,0-2.72,3.17c-1.35,1.87-2.58,3.82-3.87,5.73-.33.49-.92.88-1,1.4a21.32,21.32,0,0,0-.76,3c-.11,1.33-.74,2.77.12,4.1,0,0,0,.07,0,.09.09.3.19.59.29.89a5.28,5.28,0,0,0,.79-.69c.68-.86.84-2.16,2.14-2.51.09,0,.16-.18.21-.28.44-.91.86-1.82,1.3-2.72.87-1.75,1.77-3.48,2.61-5.25s1.58-3.34,2.23-5.06a1.37,1.37,0,0,1,1.42-.93,4.53,4.53,0,0,1,1.18.25l-.68.55c-.39,1-.67,1.88-1.05,2.71-.75,1.62-1.56,3.22-2.36,4.82-.36.7-.79,1.37-1.17,2.07-1,1.85-1.94,3.74-3,5.54-.72,1.2-1.69,2.25-2.46,3.43A4.4,4.4,0,0,0,37.82,58a19.16,19.16,0,0,0,.06,3.55C37.92,62,38.31,62.39,38.64,63Zm2.56.54.35.25c-.45.93-.86,1.89-1.38,2.79a1.85,1.85,0,0,1-1,.81c-.71.22-1,.51-.91,1.32.14,1.37.1,2.76.17,4.14,0,.2.21.39.32.59.2-.18.48-.31.61-.53.71-1.25,1.34-2.55,2.1-3.77a16.18,16.18,0,0,1,1.87-2.41c1.11-1.21,1.51-2.92,2.86-4a5.84,5.84,0,0,0,1.11-1.57c1-1.68,2-3.39,3.13-5.06.87-1.36,1.85-2.65,2.71-4a3.63,3.63,0,0,0,.62-1.73c0-1.68-.08-3.37-.17-5.05,0-.46-.23-.9-.27-1.36,0-.62,0-1.25,0-1.88L53,41.91a11.22,11.22,0,0,0-1.13,1.35c-.51.86-.91,1.79-1.41,2.65-1.31,2.28-2.65,4.54-4,6.81A4.5,4.5,0,0,0,45.78,54a13.12,13.12,0,0,1-2.33,5.07c-1,1.42-2.05,2.75-3,4.15a3.13,3.13,0,0,0-.23,1.14l.28,0Zm11.06,31c.31.37.52.89.82.94a26.92,26.92,0,0,0,3.24.31c.92,0,1.28-.4,1.18-1.33-.27-2.43-.49-4.86-.75-7.29a2,2,0,0,0-.36-.69,5.41,5.41,0,0,0-1.42,1c-1,1.45-1.95,3-3,4.46a3.51,3.51,0,0,1-1,.74c-.23.16-.48.3-.79.49l.82.47-.26.08c.11.64,0,1.62.37,1.84C52,96,51.87,94.85,52.26,94.51ZM38.61,35.59v-.18c-.4,0-.81,0-1.22,0-.94,0-1.46.56-1.31,1.48a11.31,11.31,0,0,1,0,2.1,39.4,39.4,0,0,0,.44,5.62c0,.18.33.49.44.47a1,1,0,0,0,.59-.47,47.75,47.75,0,0,1,2.67-4.87A10.34,10.34,0,0,1,43.94,36c.23-.11.38-.41.56-.63-.26,0-.52,0-.78,0s-.8.17-1.2.18C41.22,35.6,39.91,35.59,38.61,35.59Zm35.32,0a18.24,18.24,0,0,1,.34,1.86c.08.84.06,1.69.15,2.52a1,1,0,0,0,.49.56.55.55,0,0,0,.52-.2,7.05,7.05,0,0,0,.69-2,1.92,1.92,0,0,1,1.43-1.89.61.61,0,0,0,.36-.45.58.58,0,0,0-.37-.42C76.31,35.6,75.07,35.61,73.93,35.61ZM92.87,58.87l.34.13c.52-.73,1.12-.56,1.81-.31a1.46,1.46,0,0,0,1.13-.23c.14-.1,0-.6,0-.92s-.1-.66-.14-1l-.24-2.8-.32-.06a7.86,7.86,0,0,0-.56,1c-.12.27-.07.79-.23.86-.86.37-1.12,1.17-1.47,1.89A7,7,0,0,0,92.87,58.87ZM20,36.07l1.18,4.35c.41-.55.9-.94,1-1.42.24-1.08,1-1.39,1.9-1.59.25-.06.44-.41.7-.67ZM169.3,113.32v.28c.4,0,.88.14,1.17,0s.14-.68.19-1ZM58.39,17c-.06.51-.11.94-.14,1.37a1.81,1.81,0,0,0,.39.11c0-.42.1-.85.13-1.27C58.78,17.15,58.68,17.12,58.39,17ZM88.52,47.08l.36.11.43-1.54L89,45.54C88.38,45.89,88.57,46.53,88.52,47.08ZM29.81,88.69l.46.15.32-.93a2,2,0,0,0-.47-.1A9.18,9.18,0,0,0,29.81,88.69Z"/><path class="cls-1" d="M60.57,3.31a.83.83,0,0,1-.87,1.06c-1.05.07-2,.66-3.15.37S54.18,5,53,5c-1.46.07-2.92,0-4.37,0-1.72.08-3.43.28-5.15.42-.12,0-.27.08-.36,0-1.27-.58-2.42.33-3.65.27s-2.56,0-3.84,0-2.62,0-3.93,0c-.66,0-1.37-.06-1.77-.8-.1-.18-.48-.28-.73-.3-1.52-.13-2.05-.8-1.9-2.31l4.82,1c.69.15,1.37.54,2.06,0a.4.4,0,0,1,.36.06c1,.82,2,.18,3,.13,1.45-.07,2.9,0,4.34-.07a2.12,2.12,0,0,0,.88-.07c1.52-.73,1.51-.74,2.7.35.76-1,1.84-1,3-1s2.27.46,3.42-.09c.24-.12.71.23,1.19.42l.39-.8,3.16.42.51-.81,1.24,1,1.41-.89.06.31.76,1Z"/><path class="cls-1" d="M169.3,113.32l1.36-.76c0,.32,0,.88-.19,1s-.77,0-1.17,0Z"/><path class="cls-1" d="M58.39,17c.29.15.39.18.38.21,0,.42-.09.85-.13,1.27a1.81,1.81,0,0,1-.39-.11C58.28,17.91,58.33,17.48,58.39,17Z"/><path class="cls-1" d="M88.32,39.87a1.25,1.25,0,0,0,.13.45c.24.28.79.61.74.79a5.82,5.82,0,0,1-.87,1.81,51.61,51.61,0,0,1-3.93,5.22c-.49.53-.64,1.44-1.5,1.67-.1,0-.06.54-.1.92l-.9-.29c-.61,1.42-.61,1.42-2,1.64,0-.31,0-.67.12-.86,1.06-1.33,2.2-2.61,3.24-4,.63-.81,1.09-1.76,1.68-2.6s1.14-1.4,1.64-2.14S87.54,41,88,40.22a1.39,1.39,0,0,1,.32-.32Z"/><path class="cls-1" d="M81.05,40.68a30.83,30.83,0,0,1,2.11-3.14c.27-.31,1.08-.16,1.65-.22l.13.31-1.72,1.54c-.25.41-.63,1.06-1,1.69s-1,1.55-1.54,2.31c-.29.42-.65.79-.93,1.22a7.42,7.42,0,0,0-.45,1.16c-.28-.34-.74-.65-.73-.95A2.51,2.51,0,0,1,79.08,43,2.7,2.7,0,0,0,80,41.81C80.15,41.41,80.61,41.14,81.05,40.68Z"/><path class="cls-1" d="M67.63,40.1c.06,1.1-1.12,2.51-2,3.06A3.9,3.9,0,0,0,64.39,45a2.49,2.49,0,0,1-1.57,1.67c-.66-.91-.13-1.56.43-2.27s.91-1.43,1.36-2.14c1.07.37,1.84-.25,1.67-1.34-.13-.84.24-1.06,1.33-.8C67.61,40.11,67.62,40.09,67.63,40.1Z"/><path class="cls-1" d="M60,66.82l-.56-1.45c-.35-1,.45-1.47.82-2.15a17.15,17.15,0,0,1,1-1.7c.31-.45.68-.84,1.17-1.45l-.62,4.53Z"/><path class="cls-1" d="M69.32,61.75H67.44l0-.33L69,61c-.72-.4-1-.64-.5-1.59A11.41,11.41,0,0,1,69.88,57c.09-.1-.12-.48-.2-.74.75-.46.9-.41,1,.43a6.86,6.86,0,0,1-1.15,4.57A2.54,2.54,0,0,0,69.32,61.75Z"/><path class="cls-1" d="M61.21,54c1.66-.16,2.06-.69,1.89-2.35a2.43,2.43,0,0,1,.35-1.25c.72,1,1.34.44,2,0l.13.19a5.8,5.8,0,0,1-.43.82c-.73,1-1.43,2-2.22,3A1,1,0,0,1,61.21,54Z"/><path class="cls-1" d="M60,50.48l-1-1.16a5.31,5.31,0,0,1,1.21-.92c.7-.28,1.08-.64,1-1.45,0-.26.22-.55.34-.83a4.94,4.94,0,0,1,.31.86A3.78,3.78,0,0,1,60,50.48Z"/><path class="cls-1" d="M66.07,71.94c.09-.3.14-.72.21-.73,1,0,1.25-1,1.84-1.53a1.46,1.46,0,0,0,.26-.76c.05-.32.05-.65.08-1,.2,0,.56,0,.58.07a2.06,2.06,0,0,1,.12,1,10.84,10.84,0,0,1-.67,1.62C67.87,72.08,67.87,72.08,66.07,71.94Z"/><path class="cls-1" d="M67,62.11l1,1.34-1,.29c.13.23.34.43.33.62a1.42,1.42,0,0,1-.26.89,8.83,8.83,0,0,1-1.26,1c0-.37-.39-.83.21-1.36.26-.24.31-.71.45-1.07S66.74,62.79,67,62.11Z"/><path class="cls-1" d="M68.13,53.32c.15,1.33.32,2.61-1,3.52A2.64,2.64,0,0,1,68.13,53.32Z"/><path class="cls-1" d="M69.53,52.75a1.62,1.62,0,0,1-.07-1.84,13.84,13.84,0,0,1,1.1-1.19,3,3,0,0,1,.94-.38c0,.29.11.63,0,.84s-.58.57-.82.89C70.27,51.59,69.93,52.15,69.53,52.75Z"/><path class="cls-1" d="M68.53,46.67l-.59.59-1.38-.74a7.26,7.26,0,0,0,.9-1.24,6.94,6.94,0,0,0,.32-1.45l.49.05v2.75Z"/><path class="cls-1" d="M61.45,71.84c.45-.83.81-1.62,1.85-1.66C63.53,71.54,62.91,72.12,61.45,71.84Z"/><path class="cls-1" d="M65.45,48.25l.23-1.39,1,.47.15,1.11h.26l-.45.84Z"/><path class="cls-1" d="M64.92,59.83a14.27,14.27,0,0,1-.75,1.61c-.09.15-.64.22-.7.13-.18-.24-.39-.71-.27-.88C63.55,60.16,64,59.57,64.92,59.83Z"/><path class="cls-1" d="M64.35,69c0-.58,0-1.17.11-1.74a1,1,0,0,1,.39-.57.49.49,0,0,1,.46.16.92.92,0,0,1,0,.69c-.24.53-.56,1-.85,1.55Z"/><path class="cls-1" d="M71.3,73.09c.38-.52.59-1.22,1.41-.75C72.25,73.57,72.17,73.62,71.3,73.09Z"/><path class="cls-1" d="M60.23,55.52a9.34,9.34,0,0,1,1,1c.11.14,0,.43,0,.66-.19-.06-.5-.07-.56-.19C60.43,56.56,59.87,56.12,60.23,55.52Z"/><path class="cls-1" d="M72.2,65.22,71,67l-.36-.31c.06-.9,1.09-1,1.63-1.43Z"/><path class="cls-1" d="M64.23,59.09c-.07-1.18-.07-1.18.93-1.27l-.68,1.37Z"/><path class="cls-1" d="M68.66,44.24l.64-.64c.13.18.42.41.38.53a2.7,2.7,0,0,1-.54.74Z"/><path class="cls-1" d="M67.63,40.1s0,0,0,0c-.09-.39-.18-.79-.26-1.18C68.44,39.67,68.44,39.8,67.63,40.1Z"/><path class="cls-1" d="M63.76,38.49l.23-1,.8.4-.8.7Z"/><path class="cls-1" d="M124.1,50.1l.78-.75c-.38-.05-.77-.21-.88-.1-.74.75-1.64.39-2.47.39a6,6,0,0,1-1.61-.47c-.5.54-1.28.43-2.24.34-1.27-.11-2.58.42-3.89.56a20.29,20.29,0,0,1-3.33.56,44.13,44.13,0,0,1-4.91-.51c-1.33-.2-2.67-.33-4-.51a1.52,1.52,0,0,1-.93-.8,3.65,3.65,0,0,1,0-3.08c.87.81,1.11.82,2.32,0,.4-.26.75-.62,1.13-.92.12-.09.32-.22.4-.18.87.47,1.27-.44,1.91-.64.17-.05.31-.44.34-.69a6,6,0,0,0,0-1.12c0-1.15.1-1.26,1.25-1l.2,1.24c-.27.26-.55.51-.8.79,0,0,.22.38.3.36a7.07,7.07,0,0,0,1-.37c1,.63.5,1.55.16,2.41.81.37,1,.13,1.15-1.35.85,1,.9,1.33.26,2.61.92,0,1.71-.09,2.52-.11,3.11-.11,6.23-.26,9.35-.29,1.59,0,3.17.24,4.75.32a15.91,15.91,0,0,0,4.22-.49c1.56-.34,3.13-1,4.85-.51a9.44,9.44,0,0,0,2.39-.18c3.2-.06,6.4-.08,9.6-.15a7,7,0,0,0,1.47-.36,4.22,4.22,0,0,1,.3.86,1.54,1.54,0,0,1-.09.85,18.43,18.43,0,0,0-.85,1.73c-.26.78-.89.64-1.3.49-2.4-.86-4.88-.28-7.31-.48a1.74,1.74,0,0,1-.48-.14,3.21,3.21,0,0,0-3.07.36c-.82.49-2,.33-3.06.46l-2.46.32c-.37,0-.73.13-1.1.17l-5.14.41C124.66,50.16,124.46,50.12,124.1,50.1ZM108.29,45l-.31,0a8.81,8.81,0,0,0,0,1.26c0,.09.35.14.65.24Z"/><path class="cls-1" d="M101.73,38.68c.42.12.69.11.83.25.55.54,1.06,1.12,1.57,1.7,0,0,0,.13,0,.18-.55.93-1.13,1.84-1.66,2.79a4.91,4.91,0,0,0-.32,1,16.68,16.68,0,0,1-2.19.69c-.33.06-1-.19-1.06-.38a8.53,8.53,0,0,1,0-2.2c0-.2.47-.55.54-.51a3.59,3.59,0,0,1,.75.76c0-.28.08-.49.1-.71.08-.85.12-1.71.27-2.55,0-.15.5-.3.78-.31s.46.18,1,.4Zm0,2a1.47,1.47,0,0,0-.53,1.93c.06.19.71.28,1.06.23.12,0,.3-.62.22-.89A6.25,6.25,0,0,0,101.76,40.72Z"/><path class="cls-1" d="M110.44,38.15c.69.75.61,1.58-.21,2.56l-1.29-.3-.06-.74Z"/><path class="cls-1" d="M114.88,45.39V44.1c.49.82.82.59,1.25.14.62-.65,1.32-1.21,2-1.81C118.49,43.55,116.52,45.43,114.88,45.39Z"/><path class="cls-1" d="M112.5,42.41l-1-1.75a3.49,3.49,0,0,1,.94-.18,4,4,0,0,1,.88.31c-.15.23-.32.45-.46.7S112.69,42,112.5,42.41Z"/><path class="cls-1" d="M106.34,42.32a7,7,0,0,1-.27,1.22c0,.07-.48,0-.74,0l.52-1.29Z"/><path class="cls-1" d="M31.32,117.6a10.64,10.64,0,0,1-.36-1.36,10.45,10.45,0,0,1,0-1.38c-.7-.13-1,.45-1.22,1-.29.84-.71,1-1.49.65a4.06,4.06,0,0,0-1.26,0,7.74,7.74,0,0,1,.63-.87,3.07,3.07,0,0,1,.75-.58c1.68-1,1.69-3.07,2.93-4.34.21-.21.42-.6.63-.6.75,0,.82-.42.87-1a4.24,4.24,0,0,1,1.39-2.52c.36-.39,1-.13,1.13.43.07.26.13.52.17.73-.34,0-.81,0-1,.15a1.64,1.64,0,0,0-.4,1.09,2.53,2.53,0,0,1-1,2.13c-.1.08-.12.28-.24.57,1-.24,1.79-1.19,2.59,0l-1.93,1.25a1.9,1.9,0,0,1-.86,2.42c0-.69,0-1.32,0-1.95,0-.16.11-.33.06-.46a1.83,1.83,0,0,0-.42-.86,1,1,0,0,0-.75,0,7.49,7.49,0,0,0,.05,1.21l-.49.27C31.76,114.68,31.91,117.34,31.32,117.6Z"/><path class="cls-1" d="M22.28,80l.77-1.32,1.08.33-.34-1c.21-.33.52-.74.76-1.2s.25-.68.79-.54c.11,0,.46-.53.52-.85.09-.5.06-1,.5-.85.61-.7,1.12-1.3,1.65-1.87.2-.22.53-.34.67-.58A2.39,2.39,0,0,1,30,70.79c.53-.19.82-1,1.27-1.5a10.18,10.18,0,0,1,1-.88,2.66,2.66,0,0,1-1,3.69l-.18-.69c-.28.38-.63.66-.63.92,0,1-.81,1.32-1.44,1.79s-1.25.85-1.92,1.31c.11.59-.09.86-.75,1.16s-.78,1.1-1.16,1.68a9.7,9.7,0,0,1-1.38,1.88c-.27.25-.92.09-1.4.12Z"/><path class="cls-1" d="M35.11,99.48a1.47,1.47,0,0,1,1-1.8c.25-.12.62,0,.94,0-.09.37,0,.84-.27,1.07-1,1-2,2-3.05,3-.17.15-.56,0-1,.06l1.52-2.44Z"/><path class="cls-1" d="M33.87,93l-1.12-.32a5.56,5.56,0,0,1,.22.77c0,.27.11.68,0,.8a2.1,2.1,0,0,1-1.05.44c-.09,0-.34-.46-.37-.72-.12-1.09.67-1.73,1.34-2.38.13-.13.71-.08.74,0A7.65,7.65,0,0,1,33.87,93Z"/><path class="cls-1" d="M35.15,110.51a23.52,23.52,0,0,1,1.38-2.13c.16-.2.62-.21.93-.19.08,0,.15.46.18.72a4.8,4.8,0,0,1,0,.66C36.68,109.58,36.41,111.18,35.15,110.51Z"/><path class="cls-1" d="M30.52,93.85a1.12,1.12,0,0,1,.68,1.63c-.17.34-.28.72-.47,1a3.06,3.06,0,0,1-.52.56c-.16-.22-.49-.46-.46-.65A8.77,8.77,0,0,1,30.22,95C30.33,94.61,30.41,94.26,30.52,93.85Z"/><path class="cls-1" d="M35.1,91c0-.8-.08-1.6-.06-2.4,0-.13.47-.38.49-.35.28.29.78.68.72.93A9.19,9.19,0,0,1,35.37,91Z"/><path class="cls-1" d="M38,114a1,1,0,0,1-.45,1.55c-.53.28-1.06.54-1.55.78C36.06,115.53,36.06,115.53,38,114Z"/><path class="cls-1" d="M22.5,96.19c.74.11,1.17.16,1.59.26,0,0,.05.48-.06.56a5.67,5.67,0,0,1-1,.46Z"/><path class="cls-1" d="M34.24,89.39l-.55,1.81C33.14,90.67,33.14,90.67,34.24,89.39Z"/><path class="cls-1" d="M55,80.09a2.74,2.74,0,0,1-.23.66c-1.14,1.54-2.3,3-3.43,4.6a10.28,10.28,0,0,0-.85,1.44,8,8,0,0,1-2,2.7.38.38,0,0,0-.11.25,1.94,1.94,0,0,1-1.1,1.86c-.44.27-.61,1-.87,1.56-.52,1.14-1,1.37-2.65,1.18.54-.81,1-1.53,1.49-2.23,1-1.47,2.07-2.93,3.07-4.42.68-1,1.28-2.09,1.95-3.11s1.49-2,2.09-3.08S53.83,80.36,55,80.09Z"/><path class="cls-1" d="M45.57,69.64C45.79,68.4,46.19,68,47,68Z"/><path class="cls-1" d="M30.56,46.62,31.81,44l1.41.89c-.15.23-.34.55-.57.84s-.68.76-1,1.13c-.12.13-.32.28-.32.41,0,1-.78,1.45-1.46,1.95-.05,0-.12.06-.15.11-.84,1.42-2.3,2.12-3.52,3.1a1,1,0,0,0-.37.63c0,1-.65,1.52-1.26,2.14-.44.45-.7,1.06-1.1,1.55a4.06,4.06,0,0,1-1.05.93c-.17.1-.51-.07-.77-.11.11-.19.2-.39.31-.57.47-.75.91-1.52,1.42-2.24a2.63,2.63,0,0,1,1.11-.8c.29-1.5,1.44-2.54,2.22-3.82A10.3,10.3,0,0,1,29.75,47,4.31,4.31,0,0,1,30.56,46.62Z"/><path class="cls-1" d="M24.52,48.48c.61-1.23,1-2.68,1.89-3.63,1.45-1.54,1.64-3.72,3-5.23a2.37,2.37,0,0,1,2.21-1c-.37,1-1.3,1-1.95,1.44,0,.06-.05.14,0,.18.55,1,.46,1.29-.47,2.09-.24.2-.27.65-.39,1a9.88,9.88,0,0,1-.45,1.18,11.51,11.51,0,0,1-1,1.52,7.84,7.84,0,0,1-.85.88,1.49,1.49,0,0,0-.14.12L24.92,49.2l-.42-.75Z"/><path class="cls-1" d="M54.11,93.5c-.92-.36-.88-.77-.57-1.2.09-.13.32-.16.48-.23Z"/></g></g></svg>